<svg width="131" height="40" viewBox="0 0 131 40" fill="none" xmlns="http://www.w3.org/2000/svg">
<g clip-path="url(#clip0_1_7)">
<path d="M17.5 33C24.9558 33 31 26.9558 31 19.5C31 12.0442 24.9558 6 17.5 6C10.0442 6 4 12.0442 4 19.5C4 26.9558 10.0442 33 17.5 33Z" fill="url(#paint0_linear_1_7)"/>
<path d="M10.4286 15.1351C14.6075 14.0893 18.7766 13.046 22.9559 12C23.1752 12.848 23.3923 13.6879 23.6118 14.5371C20.3486 15.3537 17.0907 16.1692 13.8329 16.9846C13.8336 16.9898 13.8342 16.9949 13.835 17.0001H23.9228C23.9245 17.037 23.9274 17.0668 23.9274 17.0969C23.9276 19.2878 23.9287 21.4789 23.927 23.6698C23.926 24.8933 22.9172 25.9325 21.6794 25.9896C21.5589 25.9952 21.4381 25.9986 21.3174 25.9986C18.6832 25.9992 16.049 25.9995 13.415 25.9986C12.7566 25.9984 12.1814 25.7789 11.7114 25.3255C11.2836 24.9126 11.0414 24.4063 11.0043 23.8126C10.9969 23.6941 10.9946 23.5752 10.9946 23.4565C10.994 21.5189 10.9931 19.5814 10.9959 17.644C10.9963 17.4423 10.9738 17.2479 10.9213 17.0522C10.7567 16.4395 10.6021 15.8244 10.4438 15.21C10.4385 15.1894 10.4353 15.1682 10.4286 15.1351ZM11.6049 19.6276V19.7292C11.6049 21.0375 11.6047 22.3459 11.6057 23.6541C11.6057 23.7256 11.612 23.7977 11.6228 23.8685C11.7616 24.7735 12.5004 25.3983 13.4305 25.3983C16.0963 25.3983 18.7622 25.3983 21.4281 25.398C21.5011 25.398 21.5742 25.3946 21.6469 25.3893C22.5983 25.3211 23.3167 24.5605 23.3167 23.621C23.3167 22.3282 23.3167 21.0357 23.3167 19.7429V19.6276H11.6049ZM13.4705 17.6036C13.4906 17.6357 13.5024 17.6568 13.5162 17.6763C13.8161 18.1019 14.1171 18.5267 14.4147 18.9539C14.4495 19.0038 14.4836 19.0237 14.5453 19.0232C14.9044 19.0203 15.2635 19.0218 15.6225 19.0215C15.6496 19.0215 15.6768 19.0177 15.7073 19.0153C15.7006 18.998 15.6991 18.9882 15.6939 18.9809C15.3824 18.5369 15.0714 18.0923 14.7566 17.6504C14.7379 17.6241 14.6894 17.6062 14.6543 17.6053C14.4605 17.601 14.2666 17.6032 14.0728 17.6032C13.877 17.6032 13.6811 17.6036 13.4705 17.6036ZM18.6032 19.0218C18.5813 18.9858 18.5696 18.9638 18.5555 18.9437C18.2552 18.5175 17.9536 18.0923 17.6552 17.6648C17.6218 17.6171 17.5873 17.6021 17.5308 17.6023C17.1681 17.6046 16.8053 17.6034 16.4426 17.6036C16.419 17.6036 16.3953 17.6059 16.3602 17.6077C16.3772 17.634 16.3865 17.6494 16.3966 17.6639C16.6725 18.0572 16.9565 18.4452 17.2204 18.8462C17.3149 18.9897 17.4181 19.032 17.5838 19.0256C17.9169 19.0126 18.251 19.0218 18.6032 19.0218ZM19.2443 17.6036C19.2651 17.6367 19.2767 17.6575 19.2903 17.6771C19.5906 18.103 19.8922 18.5281 20.19 18.9555C20.2253 19.0064 20.2614 19.0235 20.3217 19.023C20.6779 19.0205 21.0341 19.0218 21.3903 19.0215C21.418 19.0215 21.4455 19.0181 21.4814 19.0158C21.4709 18.9946 21.4659 18.9803 21.4577 18.9685C21.1494 18.529 20.8415 18.0893 20.5302 17.6519C20.5114 17.6256 20.4641 17.6062 20.4297 17.6055C20.2232 17.6012 20.0163 17.6034 19.8095 17.6034C19.6263 17.6034 19.443 17.6036 19.2443 17.6036ZM21.0964 14.5442C21.0757 14.5228 21.0679 14.513 21.0586 14.505C20.6476 14.1524 20.2369 13.7993 19.824 13.4488C19.8032 13.4312 19.7605 13.4237 19.7328 13.4304C19.3634 13.52 18.9948 13.6132 18.6259 13.7056C18.6124 13.709 18.6 13.7159 18.5652 13.7298C18.5948 13.749 18.612 13.7576 18.6261 13.7696C18.9782 14.07 19.3372 14.3632 19.6782 14.6753C19.82 14.8051 19.9441 14.8502 20.1352 14.7906C20.4456 14.6937 20.7659 14.6272 21.0964 14.5442ZM15.4986 15.9453C15.4836 15.9258 15.4778 15.9147 15.4691 15.907C15.0647 15.562 14.6591 15.2185 14.2572 14.8708C14.2072 14.8276 14.1683 14.8209 14.1064 14.837C13.8061 14.9153 13.5043 14.9878 13.2033 15.0628C13.1338 15.0801 13.0649 15.099 12.9773 15.1221C13.0761 15.2072 13.1613 15.2803 13.2462 15.3533C13.5732 15.6341 13.8995 15.9157 14.2286 16.194C14.2572 16.2183 14.309 16.2395 14.3424 16.2316C14.7242 16.1407 15.1046 16.044 15.4986 15.9453ZM15.7861 14.4169C15.7966 14.4366 15.7982 14.4435 15.8026 14.4471C16.2155 14.8019 16.6278 15.1573 17.0436 15.5089C17.0703 15.5314 17.1268 15.5365 17.164 15.5276C17.5122 15.4442 17.8591 15.3562 18.2063 15.269C18.235 15.2619 18.2627 15.2517 18.3029 15.2393C17.8919 14.8874 17.4905 14.5485 17.0961 14.2022C17.013 14.1293 16.9401 14.1147 16.841 14.1511C16.7733 14.1761 16.7002 14.187 16.6295 14.2048C16.3508 14.2749 16.0721 14.3447 15.7861 14.4169ZM11.6095 19.0162H12.815C12.8142 19.0048 12.8159 18.9974 12.8131 18.9933C12.4962 18.5418 12.1793 18.0903 11.8607 17.6397C11.8485 17.6224 11.8223 17.6068 11.8015 17.6053C11.7393 17.6008 11.6765 17.6036 11.6097 17.6036L11.6095 19.0162ZM11.5232 16.9402C11.9203 16.8407 12.308 16.7436 12.7209 16.6401C12.6854 16.6142 12.6667 16.6025 12.6501 16.5883C12.2694 16.2639 11.8889 15.9393 11.5087 15.6146C11.3817 15.5062 11.3361 15.5015 11.1727 15.5868C11.2888 16.0348 11.405 16.4838 11.5232 16.9402ZM22.1289 17.607C22.4405 18.0493 22.7465 18.4745 23.0405 18.9076C23.1138 19.0156 23.1924 19.0427 23.3106 19.011V17.6068L22.1289 17.607ZM22.5126 12.7325C22.1303 12.8287 21.7588 12.922 21.3871 13.0154L21.3783 13.042C21.3947 13.052 21.4127 13.0601 21.427 13.0723C21.8052 13.3944 22.1868 13.7125 22.5581 14.042C22.6562 14.1289 22.74 14.1609 22.8633 14.0891C22.7474 13.6408 22.6308 13.1893 22.5126 12.7325Z" fill="white"/>
<path d="M16.3951 20.7748C16.4152 20.7842 16.444 20.7953 16.4707 20.8103C17.2734 21.2656 18.076 21.7212 18.8785 22.1767C19.0242 22.2593 19.1698 22.3421 19.3153 22.4252C19.4252 22.4881 19.4256 22.572 19.3143 22.6353C18.4984 23.0994 17.6821 23.5628 16.8661 24.0263C16.7341 24.1013 16.6026 24.1768 16.4699 24.2506C16.3562 24.3139 16.2827 24.2744 16.2827 24.148C16.2821 23.0681 16.2827 21.9881 16.2819 20.9081C16.2819 20.8371 16.3027 20.7859 16.3951 20.7748Z" fill="white"/>
<path d="M34.201 13.1818H37.804L41.6094 22.4659H41.7713L45.5767 13.1818H49.1797V27H46.3459V18.006H46.2312L42.6552 26.9325H40.7255L37.1495 17.9723H37.0348V27H34.201V13.1818ZM56.2153 27.2024C55.1672 27.2024 54.2609 26.9798 53.4962 26.5344C52.736 26.0846 52.149 25.4594 51.7352 24.6587C51.3213 23.8536 51.1144 22.9202 51.1144 21.8587C51.1144 20.7881 51.3213 19.8525 51.7352 19.0518C52.149 18.2467 52.736 17.6214 53.4962 17.1761C54.2609 16.7263 55.1672 16.5014 56.2153 16.5014C57.2633 16.5014 58.1675 16.7263 58.9276 17.1761C59.6923 17.6214 60.2816 18.2467 60.6954 19.0518C61.1092 19.8525 61.3161 20.7881 61.3161 21.8587C61.3161 22.9202 61.1092 23.8536 60.6954 24.6587C60.2816 25.4594 59.6923 26.0846 58.9276 26.5344C58.1675 26.9798 57.2633 27.2024 56.2153 27.2024ZM56.2288 24.9759C56.7056 24.9759 57.1037 24.8409 57.423 24.571C57.7424 24.2966 57.983 23.9233 58.145 23.451C58.3114 22.9787 58.3946 22.4412 58.3946 21.8384C58.3946 21.2357 58.3114 20.6982 58.145 20.2259C57.983 19.7536 57.7424 19.3802 57.423 19.1058C57.1037 18.8314 56.7056 18.6942 56.2288 18.6942C55.7475 18.6942 55.3427 18.8314 55.0143 19.1058C54.6904 19.3802 54.4453 19.7536 54.2789 20.2259C54.1169 20.6982 54.036 21.2357 54.036 21.8384C54.036 22.4412 54.1169 22.9787 54.2789 23.451C54.4453 23.9233 54.6904 24.2966 55.0143 24.571C55.3427 24.8409 55.7475 24.9759 56.2288 24.9759ZM72.5131 16.6364L68.8898 27H65.6512L62.028 16.6364H65.0642L67.2165 24.0515H67.3245L69.4701 16.6364H72.5131ZM73.9839 27V16.6364H76.8582V27H73.9839ZM75.4278 15.3004C75.0005 15.3004 74.6339 15.1587 74.328 14.8754C74.0267 14.5875 73.876 14.2434 73.876 13.843C73.876 13.4472 74.0267 13.1076 74.328 12.8242C74.6339 12.5363 75.0005 12.3924 75.4278 12.3924C75.8551 12.3924 76.2195 12.5363 76.5209 12.8242C76.8267 13.1076 76.9797 13.4472 76.9797 13.843C76.9797 14.2434 76.8267 14.5875 76.5209 14.8754C76.2195 15.1587 75.8551 15.3004 75.4278 15.3004ZM83.8837 27.2024C82.8176 27.2024 81.9 26.9865 81.1309 26.5547C80.3662 26.1184 79.7769 25.5021 79.3631 24.706C78.9493 23.9053 78.7424 22.9585 78.7424 21.8654C78.7424 20.7994 78.9493 19.8638 79.3631 19.0586C79.7769 18.2534 80.3594 17.6259 81.1106 17.1761C81.8663 16.7263 82.7524 16.5014 83.769 16.5014C84.4527 16.5014 85.0892 16.6116 85.6784 16.832C86.2722 17.0479 86.7895 17.3741 87.2303 17.8104C87.6756 18.2467 88.022 18.7955 88.2694 19.4567C88.5167 20.1134 88.6404 20.8826 88.6404 21.7642V22.5536H79.8894V20.7724H85.9348C85.9348 20.3585 85.8449 19.992 85.665 19.6726C85.485 19.3532 85.2354 19.1036 84.916 18.9237C84.6011 18.7392 84.2346 18.647 83.8162 18.647C83.3799 18.647 82.9931 18.7482 82.6557 18.9506C82.3229 19.1486 82.062 19.4162 81.873 19.7536C81.6841 20.0864 81.5874 20.4575 81.5829 20.8668V22.5604C81.5829 23.0732 81.6774 23.5162 81.8663 23.8896C82.0597 24.2629 82.3319 24.5508 82.6827 24.7532C83.0336 24.9556 83.4496 25.0568 83.9309 25.0568C84.2503 25.0568 84.5427 25.0118 84.8081 24.9219C85.0734 24.8319 85.3006 24.697 85.4895 24.517C85.6784 24.3371 85.8224 24.1167 85.9213 23.8558L88.5797 24.0312C88.4448 24.67 88.1681 25.2277 87.7498 25.7045C87.336 26.1768 86.8007 26.5457 86.144 26.8111C85.4918 27.072 84.7383 27.2024 83.8837 27.2024ZM99.139 19.5916L96.5076 19.7536C96.4627 19.5286 96.3659 19.3262 96.2175 19.1463C96.0691 18.9619 95.8734 18.8157 95.6305 18.7077C95.3921 18.5953 95.1065 18.5391 94.7736 18.5391C94.3283 18.5391 93.9527 18.6335 93.6468 18.8224C93.341 19.0069 93.188 19.2543 93.188 19.5646C93.188 19.812 93.287 20.0212 93.4849 20.1921C93.6828 20.363 94.0224 20.5002 94.5037 20.6037L96.3794 20.9815C97.387 21.1884 98.1382 21.5213 98.633 21.9801C99.1278 22.4389 99.3752 23.0417 99.3752 23.7884C99.3752 24.4676 99.175 25.0636 98.7747 25.5763C98.3788 26.0891 97.8346 26.4895 97.1419 26.7773C96.4537 27.0607 95.6597 27.2024 94.7601 27.2024C93.3882 27.2024 92.2952 26.9168 91.481 26.3455C90.6713 25.7698 90.1968 24.9871 90.0574 23.9975L92.8844 23.8491C92.9699 24.2674 93.1768 24.5868 93.5051 24.8072C93.8335 25.0231 94.2541 25.131 94.7669 25.131C95.2707 25.131 95.6755 25.0343 95.9814 24.8409C96.2917 24.643 96.4492 24.3888 96.4537 24.0785C96.4492 23.8176 96.339 23.6039 96.123 23.4375C95.9071 23.2666 95.5743 23.1361 95.1245 23.0462L93.3297 22.6886C92.3176 22.4862 91.5642 22.1353 91.0694 21.636C90.5791 21.1367 90.334 20.5002 90.334 19.7266C90.334 19.0608 90.5139 18.4873 90.8738 18.006C91.2381 17.5247 91.7486 17.1536 92.4054 16.8928C93.0666 16.6319 93.8403 16.5014 94.7264 16.5014C96.0353 16.5014 97.0654 16.7781 97.8166 17.3313C98.5723 17.8846 99.0131 18.638 99.139 19.5916ZM106.698 16.6364V18.7955H100.456V16.6364H106.698ZM101.873 14.1534H104.748V23.8153C104.748 24.0807 104.788 24.2876 104.869 24.4361C104.95 24.58 105.062 24.6812 105.206 24.7397C105.355 24.7982 105.526 24.8274 105.719 24.8274C105.854 24.8274 105.989 24.8162 106.124 24.7937C106.259 24.7667 106.362 24.7464 106.434 24.733L106.886 26.8718C106.743 26.9168 106.54 26.9685 106.279 27.027C106.018 27.09 105.701 27.1282 105.328 27.1417C104.635 27.1687 104.028 27.0765 103.506 26.8651C102.989 26.6536 102.586 26.3253 102.298 25.88C102.011 25.4347 101.869 24.8724 101.873 24.1932V14.1534ZM111.525 27.1957C110.864 27.1957 110.275 27.081 109.757 26.8516C109.24 26.6177 108.831 26.2736 108.529 25.8192C108.233 25.3604 108.084 24.7892 108.084 24.1055C108.084 23.5297 108.19 23.0462 108.401 22.6548C108.613 22.2635 108.9 21.9486 109.265 21.7102C109.629 21.4718 110.043 21.2919 110.506 21.1705C110.974 21.049 111.464 20.9635 111.977 20.9141C112.58 20.8511 113.066 20.7926 113.435 20.7386C113.803 20.6802 114.071 20.5947 114.237 20.4822C114.404 20.3698 114.487 20.2034 114.487 19.983V19.9425C114.487 19.5152 114.352 19.1845 114.082 18.9506C113.817 18.7167 113.439 18.5998 112.949 18.5998C112.431 18.5998 112.02 18.7145 111.714 18.9439C111.408 19.1688 111.206 19.4522 111.107 19.794L108.448 19.5781C108.583 18.9484 108.849 18.4041 109.245 17.9453C109.64 17.482 110.151 17.1267 110.776 16.8793C111.406 16.6274 112.135 16.5014 112.962 16.5014C113.538 16.5014 114.089 16.5689 114.615 16.7038C115.146 16.8388 115.616 17.0479 116.025 17.3313C116.439 17.6147 116.765 17.979 117.004 18.4244C117.242 18.8652 117.361 19.3937 117.361 20.0099V27H114.636V25.5629H114.555C114.388 25.8867 114.166 26.1723 113.887 26.4197C113.608 26.6626 113.273 26.8538 112.881 26.9933C112.49 27.1282 112.038 27.1957 111.525 27.1957ZM112.348 25.212C112.771 25.212 113.144 25.1288 113.468 24.9624C113.792 24.7914 114.046 24.562 114.231 24.2741C114.415 23.9863 114.507 23.6602 114.507 23.2958V22.196C114.417 22.2545 114.294 22.3085 114.136 22.358C113.983 22.4029 113.81 22.4457 113.617 22.4862C113.423 22.5221 113.23 22.5559 113.036 22.5874C112.843 22.6143 112.668 22.6391 112.51 22.6616C112.173 22.7111 111.878 22.7898 111.626 22.8977C111.374 23.0057 111.179 23.1519 111.039 23.3363C110.9 23.5162 110.83 23.7411 110.83 24.011C110.83 24.4023 110.972 24.7015 111.255 24.9084C111.543 25.1108 111.907 25.212 112.348 25.212ZM122.466 21.0085V27H119.591V16.6364H122.331V18.4648H122.452C122.682 17.8621 123.066 17.3853 123.606 17.0344C124.146 16.6791 124.8 16.5014 125.569 16.5014C126.289 16.5014 126.917 16.6589 127.452 16.9737C127.987 17.2886 128.403 17.7384 128.7 18.3232C128.997 18.9034 129.145 19.5961 129.145 20.4013V27H126.271V20.9141C126.276 20.2798 126.114 19.785 125.785 19.4297C125.457 19.0698 125.005 18.8899 124.429 18.8899C124.042 18.8899 123.7 18.9731 123.403 19.1396C123.111 19.306 122.882 19.5489 122.715 19.8683C122.553 20.1831 122.47 20.5632 122.466 21.0085Z" fill="url(#paint1_linear_1_7)"/>
</g>
<defs>
<linearGradient id="paint0_linear_1_7" x1="4.66832" y1="24.1098" x2="34.1078" y2="13.9886" gradientUnits="userSpaceOnUse">
<stop stop-color="#F89E00"/>
<stop offset="1" stop-color="#DA2F68"/>
</linearGradient>
<linearGradient id="paint1_linear_1_7" x1="33" y1="21" x2="133" y2="21" gradientUnits="userSpaceOnUse">
<stop stop-color="#F5910C"/>
<stop offset="1" stop-color="#E24B4E"/>
</linearGradient>
<clipPath id="clip0_1_7">
<rect width="131" height="40" fill="white"/>
</clipPath>
</defs>
</svg>
